<svg width="201" height="56" viewBox="0 0 201 56" fill="none" xmlns="http://www.w3.org/2000/svg">
<path d="M75.1146 40.974C74.4167 40.974 73.849 40.7604 73.4062 40.3281C72.9583 39.8854 72.7396 39.3438 72.7396 38.7031V17.0365H77.5938V38.7031C77.5938 39.3438 77.3542 39.8854 76.8854 40.3281C76.4271 40.7604 75.8333 40.974 75.1146 40.974ZM66.8646 19.1198C66.224 19.1198 65.6823 18.9271 65.2396 18.5365C64.8073 18.1354 64.5938 17.6094 64.5938 16.9531C64.5938 16.3021 64.8073 15.7865 65.2396 15.4115C65.6823 15.026 66.224 14.8281 66.8646 14.8281H83.4479C84.099 14.8281 84.6406 15.0313 85.0729 15.4323C85.5156 15.8229 85.7396 16.3438 85.7396 16.9948C85.7396 17.651 85.5156 18.1719 85.0729 18.5573C84.6406 18.9323 84.099 19.1198 83.4479 19.1198H66.8646Z" fill="#D9D3C7"/>
<path d="M91.9323 14.8281H104.453C105.089 14.8281 105.625 15.0365 106.057 15.4531C106.5 15.8594 106.724 16.3854 106.724 17.0365C106.724 17.6615 106.5 18.1719 106.057 18.5573C105.625 18.9323 105.089 19.1198 104.453 19.1198H93.974L94.3281 18.4948V25.7656L94.0156 25.474H102.766C103.401 25.474 103.938 25.6823 104.37 26.099C104.812 26.5052 105.036 27.0313 105.036 27.6823C105.036 28.3073 104.812 28.8177 104.37 29.2031C103.938 29.5781 103.401 29.7656 102.766 29.7656H94.1406L94.3281 29.474V37.0156L94.0156 36.6823H104.453C105.089 36.6823 105.625 36.9063 106.057 37.349C106.5 37.7813 106.724 38.2813 106.724 38.849C106.724 39.474 106.5 39.9896 106.057 40.3906C105.625 40.7813 105.089 40.974 104.453 40.974H91.9323C91.276 40.974 90.7292 40.7604 90.2865 40.3281C89.8542 39.8854 89.6406 39.3438 89.6406 38.7031V17.099C89.6406 16.4635 89.8542 15.9271 90.2865 15.4948C90.7292 15.0521 91.276 14.8281 91.9323 14.8281Z" fill="#D9D3C7"/>
<path d="M125.439 36.599C126.075 36.599 126.611 36.8073 127.044 37.224C127.486 37.6302 127.71 38.1563 127.71 38.8073C127.71 39.4323 127.486 39.9531 127.044 40.3698C126.611 40.776 126.075 40.974 125.439 40.974H113.294C112.637 40.974 112.09 40.7604 111.648 40.3281C111.215 39.8854 111.002 39.3438 111.002 38.7031V17.099C111.002 16.4635 111.221 15.9271 111.669 15.4948C112.127 15.0521 112.7 14.8281 113.398 14.8281C113.992 14.8281 114.523 15.0521 114.981 15.4948C115.45 15.9271 115.689 16.4635 115.689 17.099V37.2448L114.856 36.599H125.439Z" fill="#D9D3C7"/>
<path d="M146.43 36.599C147.065 36.599 147.602 36.8073 148.034 37.224C148.477 37.6302 148.701 38.1563 148.701 38.8073C148.701 39.4323 148.477 39.9531 148.034 40.3698C147.602 40.776 147.065 40.974 146.43 40.974H134.284C133.628 40.974 133.081 40.7604 132.638 40.3281C132.206 39.8854 131.992 39.3438 131.992 38.7031V17.099C131.992 16.4635 132.211 15.9271 132.659 15.4948C133.117 15.0521 133.69 14.8281 134.388 14.8281C134.982 14.8281 135.513 15.0521 135.971 15.4948C136.44 15.9271 136.68 16.4635 136.68 17.099V37.2448L135.846 36.599H146.43Z" fill="#D9D3C7"/>
<path d="M154.817 14.8301C154.994 14.8301 155.176 14.8717 155.359 14.9551C155.551 15.028 155.713 15.1426 155.838 15.3092L166.15 30.7884L165.13 30.7467L175.484 15.3092C175.76 14.9342 176.093 14.778 176.484 14.8301C176.786 14.8301 177.046 14.9342 177.255 15.1426C177.463 15.3509 177.567 15.6217 177.567 15.9551V39.8509C177.567 40.1582 177.452 40.4238 177.234 40.6426C177.01 40.8665 176.739 40.9759 176.421 40.9759C176.072 40.9759 175.781 40.8665 175.546 40.6426C175.322 40.4238 175.213 40.1582 175.213 39.8509V18.2259L175.9 18.3092L166.442 32.6009C166.369 32.7571 166.26 32.8821 166.109 32.9759C165.952 33.0592 165.781 33.0905 165.588 33.0592C165.406 33.0905 165.234 33.0592 165.067 32.9759C164.911 32.8821 164.786 32.7571 164.692 32.6009L155.192 18.1426L155.9 17.6634V39.8509C155.9 40.1582 155.796 40.4238 155.588 40.6426C155.38 40.8665 155.114 40.9759 154.796 40.9759C154.463 40.9759 154.197 40.8665 154.005 40.6426C153.807 40.4238 153.713 40.1582 153.713 39.8509V15.9551C153.713 15.653 153.817 15.3874 154.025 15.1634C154.234 14.9446 154.494 14.8301 154.817 14.8301Z" fill="#D9D3C7"/>
<path d="M185.704 14.8281H199.412C199.714 14.8281 199.98 14.9323 200.204 15.1406C200.423 15.349 200.537 15.6198 200.537 15.9531C200.537 16.276 200.423 16.5365 200.204 16.7448C199.98 16.9427 199.714 17.0365 199.412 17.0365H186.579L186.954 16.3906V26.8906L186.537 26.4115H197.745C198.037 26.4115 198.292 26.526 198.516 26.7448C198.735 26.9688 198.85 27.2344 198.85 27.5365C198.85 27.8594 198.735 28.1198 198.516 28.3281C198.292 28.526 198.037 28.6198 197.745 28.6198H186.6L186.954 28.2448V38.9948L186.766 38.7656H199.412C199.714 38.7656 199.98 38.8802 200.204 39.099C200.423 39.3229 200.537 39.5885 200.537 39.8906C200.537 40.2135 200.423 40.474 200.204 40.6823C199.98 40.8802 199.714 40.974 199.412 40.974H185.704C185.412 40.974 185.152 40.8646 184.933 40.6406C184.709 40.4219 184.6 40.1563 184.6 39.849V15.9531C184.6 15.651 184.709 15.3854 184.933 15.1615C185.152 14.9427 185.412 14.8281 185.704 14.8281Z" fill="#D9D3C7"/>
<path d="M72.7741 50.9271C72.8991 50.9167 73.0241 50.8958 73.1491 50.8646C73.2741 50.8229 73.3626 50.7812 73.4199 50.7396V46.9688C73.2376 46.875 73.0085 46.8125 72.7324 46.7812L72.7741 46.5312H75.8783L75.9408 47.5729C75.8678 47.6042 75.8001 47.6146 75.7324 47.6146C75.7168 47.6146 75.6803 47.6094 75.6283 47.5938C75.571 47.2917 75.472 47.0521 75.3366 46.8854H74.0241V48.6354L74.8158 48.5938C74.9095 48.5938 74.9876 48.5521 75.0449 48.4688C75.1126 48.3854 75.1699 48.276 75.2116 48.1354H75.4408V49.5104H75.2116C75.1543 49.3177 75.097 49.1875 75.0449 49.1146C75.0033 49.0469 74.9199 49.0052 74.7949 48.9896L74.0241 48.9479V50.7812H75.5241C75.6595 50.5729 75.7585 50.3125 75.8158 49.9896C75.8678 49.9792 75.9095 49.9688 75.9408 49.9688C75.9668 49.9688 76.0241 49.9792 76.1074 49.9896L76.0449 51.1771H72.7324L72.7741 50.9271Z" fill="#D9D3C7"/>
<path d="M79.347 50.9271C79.6074 50.901 79.8158 50.8438 79.972 50.7604L81.1803 48.8021L79.9928 46.9479C79.8783 46.8802 79.7324 46.8229 79.5553 46.7812L79.597 46.5312H81.3262L81.2845 46.7812C81.0449 46.8125 80.8574 46.875 80.722 46.9688L81.5762 48.3021L82.4095 46.9688C82.2689 46.8854 82.0814 46.8229 81.847 46.7812L81.8887 46.5312H83.4095L83.3678 46.7812C83.2012 46.7969 83.0449 46.8542 82.9095 46.9479L81.8262 48.6979L83.1387 50.7604C83.222 50.8021 83.2949 50.8385 83.3678 50.8646C83.4512 50.8958 83.5449 50.9167 83.6595 50.9271L83.6178 51.1771H81.7637L81.8053 50.9271C81.9564 50.9271 82.0762 50.9167 82.1595 50.8854C82.2533 50.8438 82.3366 50.7969 82.4095 50.7396L81.4303 49.1979L80.472 50.7604C80.5553 50.875 80.7689 50.9271 81.1178 50.9271L81.097 51.1771H79.3262L79.347 50.9271Z" fill="#D9D3C7"/>
<path d="M86.9264 50.9271C87.1868 50.8854 87.4056 50.8229 87.5723 50.7396V46.9688C87.39 46.875 87.1608 46.8125 86.8848 46.7812L86.9264 46.5312H88.7181C89.2441 46.5312 89.6348 46.6458 89.8848 46.8646C90.1348 47.0729 90.2598 47.3958 90.2598 47.8229C90.2598 48.2969 90.0983 48.6354 89.7806 48.8438C89.4733 49.0417 89.015 49.1354 88.4056 49.1354H88.1764V50.7396C88.3275 50.8229 88.5566 50.8854 88.8639 50.9271L88.8431 51.1771H86.8848L86.9264 50.9271ZM88.4056 48.8229C88.791 48.8229 89.0931 48.7396 89.3014 48.5729C89.5202 48.4062 89.6348 48.151 89.6348 47.8021C89.6348 47.151 89.3014 46.8229 88.6348 46.8229C88.4941 46.8229 88.3431 46.8385 88.1764 46.8646V48.8229H88.4056Z" fill="#D9D3C7"/>
<path d="M93.8444 50.9271C93.9694 50.9167 94.0944 50.8958 94.2194 50.8646C94.3444 50.8229 94.4329 50.7812 94.4902 50.7396V46.9688C94.3079 46.875 94.0788 46.8125 93.8027 46.7812L93.8444 46.5312H96.9486L97.0111 47.5729C96.9382 47.6042 96.8704 47.6146 96.8027 47.6146C96.7871 47.6146 96.7507 47.6094 96.6986 47.5938C96.6413 47.2917 96.5423 47.0521 96.4069 46.8854H95.0944V48.6354L95.8861 48.5938C95.9798 48.5938 96.0579 48.5521 96.1152 48.4688C96.1829 48.3854 96.2402 48.276 96.2819 48.1354H96.5111V49.5104H96.2819C96.2246 49.3177 96.1673 49.1875 96.1152 49.1146C96.0736 49.0469 95.9902 49.0052 95.8652 48.9896L95.0944 48.9479V50.7812H96.5944C96.7298 50.5729 96.8288 50.3125 96.8861 49.9896C96.9382 49.9792 96.9798 49.9688 97.0111 49.9688C97.0371 49.9688 97.0944 49.9792 97.1777 49.9896L97.1152 51.1771H93.8027L93.8444 50.9271Z" fill="#D9D3C7"/>
<path d="M100.811 50.9271C101.072 50.8854 101.29 50.8229 101.457 50.7396V46.9688C101.29 46.875 101.061 46.8125 100.77 46.7812L100.811 46.5312H102.603C103.671 46.5312 104.207 46.9427 104.207 47.7604C104.207 48.0677 104.124 48.3177 103.957 48.5104C103.801 48.6927 103.561 48.8229 103.228 48.9062C103.322 48.9635 103.4 49.0417 103.457 49.1354C103.525 49.2344 103.592 49.3594 103.665 49.5104L104.228 50.7396C104.363 50.8229 104.561 50.8802 104.811 50.9062L104.77 51.1771H103.707L103.103 49.6146C103.02 49.4219 102.947 49.2812 102.895 49.1979C102.837 49.1146 102.759 49.0677 102.665 49.0521C102.566 49.026 102.415 49.0104 102.207 49.0104H102.061V50.7396C102.129 50.7812 102.212 50.8177 102.311 50.8438C102.421 50.875 102.566 50.901 102.749 50.9271L102.707 51.1771H100.77L100.811 50.9271ZM102.29 48.6771C102.717 48.6771 103.04 48.6042 103.249 48.4479C103.457 48.2969 103.561 48.0625 103.561 47.7396C103.561 47.4375 103.478 47.2083 103.311 47.0521C103.155 46.8854 102.915 46.8021 102.582 46.8021C102.426 46.8021 102.254 46.8229 102.061 46.8646V48.6771H102.29Z" fill="#D9D3C7"/>
<path d="M108.288 50.9271C108.548 50.8854 108.767 50.8229 108.934 50.7396V46.9688C108.751 46.875 108.522 46.8125 108.246 46.7812L108.288 46.5312H110.225L110.184 46.7812C109.934 46.8125 109.715 46.875 109.538 46.9688V50.7396C109.689 50.8229 109.918 50.8854 110.225 50.9271L110.184 51.1771H108.246L108.288 50.9271Z" fill="#D9D3C7"/>
<path d="M113.88 50.9271C114.005 50.9167 114.13 50.8958 114.255 50.8646C114.38 50.8229 114.468 50.7812 114.525 50.7396V46.9688C114.343 46.875 114.114 46.8125 113.838 46.7812L113.88 46.5312H116.984L117.046 47.5729C116.973 47.6042 116.906 47.6146 116.838 47.6146C116.822 47.6146 116.786 47.6094 116.734 47.5938C116.676 47.2917 116.577 47.0521 116.442 46.8854H115.13V48.6354L115.921 48.5938C116.015 48.5938 116.093 48.5521 116.15 48.4688C116.218 48.3854 116.275 48.276 116.317 48.1354H116.546V49.5104H116.317C116.26 49.3177 116.202 49.1875 116.15 49.1146C116.109 49.0469 116.025 49.0052 115.9 48.9896L115.13 48.9479V50.7812H116.63C116.765 50.5729 116.864 50.3125 116.921 49.9896C116.973 49.9792 117.015 49.9688 117.046 49.9688C117.072 49.9688 117.13 49.9792 117.213 49.9896L117.15 51.1771H113.838L113.88 50.9271Z" fill="#D9D3C7"/>
<path d="M120.846 50.9271C121.107 50.8854 121.326 50.8229 121.492 50.7396V46.9688C121.31 46.875 121.081 46.8125 120.805 46.7812L120.846 46.5312H121.951L124.159 49.8438V46.9688C123.992 46.875 123.763 46.8125 123.471 46.7812L123.513 46.5312H125.284L125.242 46.7812C124.992 46.8125 124.773 46.875 124.596 46.9688V51.1771H124.305L121.93 47.5729V50.7396C122.081 50.8229 122.305 50.8854 122.596 50.9271L122.576 51.1771H120.805L120.846 50.9271Z" fill="#D9D3C7"/>
<path d="M130.591 51.2188C129.992 51.2188 129.549 51.0312 129.258 50.6562C128.966 50.2708 128.82 49.6667 128.82 48.8438C128.82 48.0417 128.966 47.4427 129.258 47.0521C129.549 46.6667 129.997 46.4688 130.612 46.4688C130.888 46.4688 131.133 46.5104 131.341 46.5938C131.549 46.6667 131.706 46.7708 131.82 46.9062C131.945 47.0469 132.008 47.2083 132.008 47.3854C132.008 47.5417 131.966 47.6719 131.883 47.7812C131.81 47.8802 131.721 47.9271 131.612 47.9271C131.513 47.9271 131.424 47.9062 131.341 47.8646C131.268 47.8125 131.221 47.7396 131.195 47.6562C131.289 47.5312 131.341 47.4167 131.341 47.3021C131.341 47.1667 131.268 47.0521 131.133 46.9688C131.008 46.8854 130.831 46.8438 130.612 46.8438C130.237 46.8438 129.956 47.0104 129.779 47.3438C129.596 47.6667 129.508 48.1667 129.508 48.8438C129.508 49.526 129.596 50.026 129.779 50.3438C129.956 50.651 130.237 50.8021 130.612 50.8021C130.862 50.8021 131.096 50.75 131.32 50.6354C131.555 50.526 131.727 50.3958 131.841 50.2396L132.091 50.5104C131.951 50.6771 131.747 50.8385 131.487 50.9896C131.237 51.1458 130.935 51.2188 130.591 51.2188Z" fill="#D9D3C7"/>
<path d="M135.704 50.9271C135.829 50.9167 135.954 50.8958 136.079 50.8646C136.204 50.8229 136.292 50.7812 136.35 50.7396V46.9688C136.167 46.875 135.938 46.8125 135.662 46.7812L135.704 46.5312H138.808L138.87 47.5729C138.798 47.6042 138.73 47.6146 138.662 47.6146C138.646 47.6146 138.61 47.6094 138.558 47.5938C138.501 47.2917 138.402 47.0521 138.266 46.8854H136.954V48.6354L137.745 48.5938C137.839 48.5938 137.917 48.5521 137.975 48.4688C138.042 48.3854 138.1 48.276 138.141 48.1354H138.37V49.5104H138.141C138.084 49.3177 138.027 49.1875 137.975 49.1146C137.933 49.0469 137.85 49.0052 137.725 48.9896L136.954 48.9479V50.7812H138.454C138.589 50.5729 138.688 50.3125 138.745 49.9896C138.798 49.9792 138.839 49.9688 138.87 49.9688C138.896 49.9688 138.954 49.9792 139.037 49.9896L138.975 51.1771H135.662L135.704 50.9271Z" fill="#D9D3C7"/>
<path d="M149.111 51.2188C148.512 51.2188 148.069 51.0312 147.777 50.6562C147.486 50.2708 147.34 49.6667 147.34 48.8438C147.34 48.0417 147.486 47.4427 147.777 47.0521C148.069 46.6667 148.517 46.4688 149.132 46.4688C149.408 46.4688 149.652 46.5104 149.861 46.5938C150.069 46.6667 150.225 46.7708 150.34 46.9062C150.465 47.0469 150.527 47.2083 150.527 47.3854C150.527 47.5417 150.486 47.6719 150.402 47.7812C150.329 47.8802 150.241 47.9271 150.132 47.9271C150.033 47.9271 149.944 47.9062 149.861 47.8646C149.788 47.8125 149.741 47.7396 149.715 47.6562C149.809 47.5312 149.861 47.4167 149.861 47.3021C149.861 47.1667 149.788 47.0521 149.652 46.9688C149.527 46.8854 149.35 46.8438 149.132 46.8438C148.757 46.8438 148.475 47.0104 148.298 47.3438C148.116 47.6667 148.027 48.1667 148.027 48.8438C148.027 49.526 148.116 50.026 148.298 50.3438C148.475 50.651 148.757 50.8021 149.132 50.8021C149.382 50.8021 149.616 50.75 149.84 50.6354C150.074 50.526 150.246 50.3958 150.361 50.2396L150.611 50.5104C150.47 50.6771 150.267 50.8385 150.007 50.9896C149.757 51.1458 149.454 51.2188 149.111 51.2188Z" fill="#D9D3C7"/>
<path d="M154.221 50.9271C154.482 50.8854 154.701 50.8229 154.867 50.7396V46.9688C154.701 46.875 154.471 46.8125 154.18 46.7812L154.221 46.5312H156.013C157.081 46.5312 157.617 46.9427 157.617 47.7604C157.617 48.0677 157.534 48.3177 157.367 48.5104C157.211 48.6927 156.971 48.8229 156.638 48.9062C156.732 48.9635 156.81 49.0417 156.867 49.1354C156.935 49.2344 157.003 49.3594 157.076 49.5104L157.638 50.7396C157.773 50.8229 157.971 50.8802 158.221 50.9062L158.18 51.1771H157.117L156.513 49.6146C156.43 49.4219 156.357 49.2812 156.305 49.1979C156.247 49.1146 156.169 49.0677 156.076 49.0521C155.977 49.026 155.826 49.0104 155.617 49.0104H155.471V50.7396C155.539 50.7812 155.622 50.8177 155.721 50.8438C155.831 50.875 155.977 50.901 156.159 50.9271L156.117 51.1771H154.18L154.221 50.9271ZM155.701 48.6771C156.128 48.6771 156.451 48.6042 156.659 48.4479C156.867 48.2969 156.971 48.0625 156.971 47.7396C156.971 47.4375 156.888 47.2083 156.721 47.0521C156.565 46.8854 156.326 46.8021 155.992 46.8021C155.836 46.8021 155.664 46.8229 155.471 46.8646V48.6771H155.701Z" fill="#D9D3C7"/>
<path d="M161.7 50.9271C161.825 50.9167 161.95 50.8958 162.075 50.8646C162.2 50.8229 162.288 50.7812 162.346 50.7396V46.9688C162.163 46.875 161.934 46.8125 161.658 46.7812L161.7 46.5312H164.804L164.867 47.5729C164.794 47.6042 164.726 47.6146 164.658 47.6146C164.643 47.6146 164.606 47.6094 164.554 47.5938C164.497 47.2917 164.398 47.0521 164.262 46.8854H162.95V48.6354L163.742 48.5938C163.835 48.5938 163.913 48.5521 163.971 48.4688C164.038 48.3854 164.096 48.276 164.137 48.1354H164.367V49.5104H164.137C164.08 49.3177 164.023 49.1875 163.971 49.1146C163.929 49.0469 163.846 49.0052 163.721 48.9896L162.95 48.9479V50.7812H164.45C164.585 50.5729 164.684 50.3125 164.742 49.9896C164.794 49.9792 164.835 49.9688 164.867 49.9688C164.893 49.9688 164.95 49.9792 165.033 49.9896L164.971 51.1771H161.658L161.7 50.9271Z" fill="#D9D3C7"/>
<path d="M168.458 50.9271C168.567 50.901 168.656 50.8802 168.729 50.8646C168.796 50.8385 168.874 50.7969 168.958 50.7396L170.249 46.5312H170.687L172.124 50.7396C172.234 50.8229 172.385 50.8854 172.583 50.9271L172.541 51.1771H170.812L170.833 50.9271C171.109 50.8854 171.322 50.8229 171.479 50.7396L171.124 49.6771H169.708L169.395 50.7396C169.546 50.8229 169.77 50.8854 170.062 50.9271L170.041 51.1771H168.416L168.458 50.9271ZM170.999 49.3229L170.395 47.4896L169.833 49.3229H170.999Z" fill="#D9D3C7"/>
<path d="M176.796 50.9297C177.072 50.888 177.285 50.8255 177.441 50.7422V46.8464C177.077 46.8464 176.775 46.862 176.525 46.888C176.441 47.0026 176.368 47.1328 176.316 47.2839C176.275 47.4401 176.254 47.5755 176.254 47.7005C176.223 47.7005 176.176 47.7005 176.108 47.7005C176.035 47.7005 175.983 47.7005 175.941 47.7005V46.4922C176.592 46.5234 177.191 46.5339 177.733 46.5339C178.108 46.5339 178.462 46.5339 178.796 46.5339C179.139 46.5234 179.384 46.5078 179.525 46.4922V47.7005C179.493 47.7005 179.447 47.7005 179.379 47.7005C179.306 47.7005 179.254 47.7005 179.212 47.7005C179.181 47.3672 179.098 47.0964 178.962 46.888C178.671 46.862 178.363 46.8464 178.046 46.8464V50.7422C178.212 50.8255 178.441 50.888 178.733 50.9297L178.691 51.1797H176.754L176.796 50.9297Z" fill="#D9D3C7"/>
<path d="M184.987 51.2188C184.289 51.2188 183.799 51.0208 183.508 50.6146C183.216 50.1979 183.07 49.6094 183.07 48.8438C183.07 48.0677 183.216 47.4792 183.508 47.0729C183.799 46.6719 184.289 46.4688 184.987 46.4688C185.654 46.4688 186.133 46.6771 186.424 47.0938C186.727 47.5 186.883 48.0833 186.883 48.8438C186.883 49.625 186.727 50.2135 186.424 50.6146C186.133 51.0208 185.654 51.2188 184.987 51.2188ZM184.987 50.8854C185.305 50.8854 185.549 50.7969 185.716 50.6146C185.893 50.4375 186.013 50.1979 186.07 49.9062C186.138 49.6146 186.174 49.2604 186.174 48.8438C186.174 48.4427 186.138 48.0938 186.07 47.8021C186.013 47.5 185.893 47.2552 185.716 47.0729C185.549 46.8958 185.305 46.8021 184.987 46.8021C184.654 46.8021 184.393 46.8958 184.216 47.0729C184.034 47.2552 183.914 47.4896 183.862 47.7812C183.805 48.0729 183.779 48.4271 183.779 48.8438C183.779 49.4844 183.852 49.9844 184.008 50.3438C184.174 50.7083 184.497 50.8854 184.987 50.8854Z" fill="#D9D3C7"/>
<path d="M190.512 50.9271C190.773 50.8854 190.992 50.8229 191.158 50.7396V46.9688C190.992 46.875 190.762 46.8125 190.471 46.7812L190.512 46.5312H192.304C193.372 46.5312 193.908 46.9427 193.908 47.7604C193.908 48.0677 193.825 48.3177 193.658 48.5104C193.502 48.6927 193.262 48.8229 192.929 48.9062C193.023 48.9635 193.101 49.0417 193.158 49.1354C193.226 49.2344 193.294 49.3594 193.367 49.5104L193.929 50.7396C194.064 50.8229 194.262 50.8802 194.512 50.9062L194.471 51.1771H193.408L192.804 49.6146C192.721 49.4219 192.648 49.2812 192.596 49.1979C192.538 49.1146 192.46 49.0677 192.367 49.0521C192.268 49.026 192.117 49.0104 191.908 49.0104H191.762V50.7396C191.83 50.7812 191.913 50.8177 192.012 50.8438C192.122 50.875 192.268 50.901 192.45 50.9271L192.408 51.1771H190.471L190.512 50.9271ZM191.992 48.6771C192.419 48.6771 192.742 48.6042 192.95 48.4479C193.158 48.2969 193.262 48.0625 193.262 47.7396C193.262 47.4375 193.179 47.2083 193.012 47.0521C192.856 46.8854 192.617 46.8021 192.283 46.8021C192.127 46.8021 191.955 46.8229 191.762 46.8646V48.6771H191.992Z" fill="#D9D3C7"/>
<path d="M199.155 51.2188C198.915 51.2188 198.665 51.1823 198.405 51.1146C198.155 51.0312 197.973 50.9479 197.863 50.8646V49.7188L198.197 49.6771C198.223 49.901 198.249 50.0885 198.28 50.2396C198.322 50.3958 198.384 50.5521 198.467 50.7188C198.686 50.8333 198.952 50.8854 199.259 50.8854C199.509 50.8854 199.717 50.8177 199.884 50.6771C200.051 50.526 200.134 50.3177 200.134 50.0521C200.134 49.875 200.082 49.7188 199.988 49.5938C199.905 49.4688 199.79 49.375 199.655 49.3021C199.514 49.2188 199.332 49.1302 199.113 49.0312C198.863 48.9375 198.655 48.8385 198.488 48.7396C198.332 48.6302 198.202 48.4896 198.092 48.3229C197.978 48.1562 197.926 47.9479 197.926 47.6979C197.926 47.3229 198.051 47.026 198.301 46.8021C198.561 46.5833 198.915 46.4688 199.363 46.4688C199.598 46.4688 199.811 46.5104 200.009 46.5938C200.217 46.6667 200.374 46.7708 200.488 46.9062C200.613 47.0312 200.676 47.1771 200.676 47.3438C200.676 47.651 200.556 47.8021 200.322 47.8021C200.223 47.8021 200.139 47.7917 200.072 47.7604C200.014 47.7188 199.967 47.6667 199.926 47.5938C200.02 47.5 200.072 47.3802 200.072 47.2396C200.072 47.1146 200.009 47.0208 199.884 46.9479C199.759 46.8646 199.582 46.8229 199.363 46.8229C199.098 46.8229 198.889 46.8854 198.738 47.0104C198.598 47.125 198.53 47.2917 198.53 47.5104C198.53 47.6927 198.572 47.8385 198.655 47.9479C198.738 48.0625 198.842 48.151 198.967 48.2188C199.092 48.2917 199.264 48.375 199.488 48.4688C199.764 48.5833 199.988 48.6927 200.155 48.8021C200.322 48.901 200.457 49.0417 200.572 49.2188C200.697 49.401 200.759 49.6302 200.759 49.9062C200.759 50.3385 200.613 50.6667 200.322 50.8854C200.03 51.1094 199.639 51.2188 199.155 51.2188Z" fill="#D9D3C7"/>
<path fill-rule="evenodd" clip-rule="evenodd" d="M50.364 38.9382C47.8015 39.6413 47.9474 40.1517 43.989 40.6569C35.4838 41.7402 28.8484 38.4225 22.0307 38.9277C17.4421 39.2663 12.7651 41.3965 14.6974 46.6673C15.7807 49.6152 19.9838 53.9069 22.2651 55.0736C10.9578 32.7194 45.2546 58.0788 50.364 38.9382Z" fill="#AF7423"/>
<mask id="mask0_53_5188" style="mask-type:luminance" maskUnits="userSpaceOnUse" x="0" y="18" width="25" height="20">
<path d="M0 18.8242H24.8802V37.4909H0V18.8242Z" fill="white"/>
</mask>
<g mask="url(#mask0_53_5188)">
<path fill-rule="evenodd" clip-rule="evenodd" d="M3.91137 27.6048C5.46866 26.2246 6.90095 25.7819 9.02074 25.735C6.44262 26.9329 7.92699 28.2819 5.98429 28.4121C5.70824 28.4277 5.42699 28.3965 5.15616 28.3392L4.40616 28.0319C5.7447 28.0319 6.53116 27.9329 6.28637 26.5111C5.52074 26.8757 5.9322 26.7298 5.57283 27.4538C4.45304 27.6361 5.67179 27.1621 3.91137 27.6048ZM2.8697 26.9902C2.14574 27.4329 0.59366 28.0527 0.437411 29.0319C0.275952 30.0475 1.77074 31.5684 2.37491 31.6621L2.17699 30.4954C3.23429 29.8913 3.44783 29.8236 4.76554 29.7559C7.94262 30.8652 10.3072 33.3444 12.4947 36.7767C14.276 30.2298 20.3697 30.1882 22.1822 26.7194C22.4582 26.1882 22.677 25.61 22.802 25.1465C21.453 25.8184 20.0416 27.4538 18.2812 27.5319C17.6093 27.5632 17.0989 27.5267 16.5155 27.2454C16.4895 27.235 16.4478 27.209 16.4166 27.1882C18.5155 26.834 20.302 25.9173 21.4791 24.8288C22.4062 23.9746 23.828 21.6517 23.6197 19.6309C23.552 19.8913 22.276 21.2142 21.9999 21.4538C15.2499 27.3757 9.95824 19.7715 3.37491 25.8184C3.04158 26.1309 2.90095 26.1621 2.85408 26.6204L2.8697 26.9902Z" fill="#AF7423"/>
</g>
<path fill-rule="evenodd" clip-rule="evenodd" d="M13.1808 41.4896C17.0975 34.9427 27.0089 37.8125 34.785 38.8281C62.8266 42.4844 69.2329 16.6302 48.2381 0C47.4516 10.1146 40.186 17.4062 32.285 22.401C30.311 23.651 28.436 24.7917 26.4048 25.9896C24.3735 27.1823 22.3318 28.3594 20.4673 29.6719C18.2381 31.2448 16.8995 32.3229 15.3579 34.1823C14.2068 35.5781 12.4829 38.8021 13.1808 41.4896Z" fill="#AF7423"/>
</svg>
